<?xml version="1.0" encoding="UTF-8"?>
<svg xmlns="http://www.w3.org/2000/svg" xmlns:xlink="http://www.w3.org/1999/xlink" viewBox="0 0 278.56 85.04">
  <defs>
    <style>.cls-1{fill:#fff;}.cls-2{fill:#1a1a18;}.cls-3{fill:url(#ITB_Gradient);}</style>
    <radialGradient id="ITB_Gradient" cx="32.29" cy="47.51" fx="39.50099330793735" fy="33.40203035209005" r="36.93" gradientTransform="translate(21.16 -4.76) scale(1.14 0.97)" gradientUnits="userSpaceOnUse">
      <stop offset="0" stop-color="#fed060"></stop>
      <stop offset="0.08" stop-color="#fecf5a"></stop>
      <stop offset="0.18" stop-color="#fecc4a"></stop>
      <stop offset="0.3" stop-color="#fdc830"></stop>
      <stop offset="0.43" stop-color="#fcc10c"></stop>
      <stop offset="0.46" stop-color="#fcbf00"></stop>
      <stop offset="0.56" stop-color="#fab101"></stop>
      <stop offset="0.74" stop-color="#f38c04"></stop>
      <stop offset="0.99" stop-color="#e9500a"></stop>
      <stop offset="1" stop-color="#e84c0a"></stop>
    </radialGradient>
  </defs>
  <g id="Box">
    <rect class="cls-1" x="193.52" width="85.04" height="85.04"></rect>
    <rect class="cls-1" width="189.92" height="85.04"></rect>
  </g>
  <g id="Logo">
    <path class="cls-2" d="M162.43,34.56a2.58,2.58,0,0,1-2.8,2.76h-5.17V31.85h5.17a2.54,2.54,0,0,1,2.8,2.71M162,22.45A2.42,2.42,0,0,1,159.23,25h-4.77V19.91h4.77A2.43,2.43,0,0,1,162,22.45M170.08,35a7.25,7.25,0,0,0-3.85-6.78,7.5,7.5,0,0,0,3.41-6.17c0-5.38-3.45-9-9.93-9h-12.9V44.19h13.56c5.56,0,9.71-3.24,9.71-9.19M141.86,19.86V13h-23v6.82h7.65V44.19h7.66V19.86ZM114,13H106.3V44.19H114Z"></path>
    <path class="cls-2" d="M106.29,56h3.81c2.63,0,5.09.87,5.09,3.95a3.32,3.32,0,0,1-2.92,3.66v0a3.75,3.75,0,0,1,3.4,3.81c0,3.5-2.85,4.58-6.19,4.58h-3.19Zm1.58,14.67h1.66c2.14,0,4.55-.57,4.55-3.13,0-2.85-2.46-3.15-4.8-3.15h-1.41Zm0-7.66h1.77c1.68,0,3.91-.43,3.91-3,0-2.32-2.14-2.64-3.5-2.64h-2.18Z"></path>
    <path class="cls-2" d="M118.9,56h7.87v1.38h-6.28v5.72h6v1.38h-6v6.19H127V72H118.9Z"></path>
    <path class="cls-2" d="M129.74,56h4.14c2.85,0,4.72,1.22,4.72,4.16a3.78,3.78,0,0,1-3.57,3.7v0c1.29.16,1.56.85,2.07,1.93L139.84,72h-1.75l-2.32-5.43c-.92-2.07-1.61-2.14-3.13-2.14h-1.31V72h-1.59Zm1.59,7.1H133c1.86,0,4-.71,4-2.94,0-2.62-1.86-2.78-4-2.78h-1.63Z"></path>
    <path class="cls-2" d="M142.16,56h1.58V70.62h6.44V72h-8Z"></path>
    <path class="cls-2" d="M152.25,56h1.58V72h-1.58Z"></path>
    <path class="cls-2" d="M157.41,56h2l8.17,14.12h0V56h1.59V72h-2.14l-8-13.84h0V72h-1.59Z"></path>
    <path class="cls-2" d="M203,14h-2.29V13h5.63V14h-2.29V20.4H203Z"></path>
    <path class="cls-2" d="M207.43,12.49h1v3.3h0a2,2,0,0,1,1.72-.89c1.4,0,2,.86,2,2.31V20.4h-1V17.62c0-1.26-.28-1.87-1.14-1.92-1.13,0-1.64.91-1.64,2.21V20.4h-1Z"></path>
    <path class="cls-2" d="M218,20.18a4.1,4.1,0,0,1-1.7.35,2.58,2.58,0,0,1-2.79-2.91,2.5,2.5,0,0,1,2.52-2.72c1.8,0,2.38,1.31,2.38,3h-3.84a1.76,1.76,0,0,0,1.77,1.8,3.24,3.24,0,0,0,1.66-.54Zm-.65-3a1.35,1.35,0,0,0-1.34-1.5,1.48,1.48,0,0,0-1.44,1.5Z"></path>
    <path class="cls-2" d="M221.89,13h1.16l1.76,6.31h0L226.4,13h1.5l1.59,6.31h0L231.27,13h1.12l-2.27,7.36h-1.36L227.16,14h0l-1.61,6.43h-1.42Z"></path>
    <path class="cls-2" d="M235.46,14.9a2.65,2.65,0,0,1,2.73,2.81,2.74,2.74,0,1,1-5.47,0A2.65,2.65,0,0,1,235.46,14.9Zm0,4.83a1.8,1.8,0,0,0,1.67-2,1.71,1.71,0,1,0-3.36,0A1.81,1.81,0,0,0,235.46,19.73Z"></path>
    <path class="cls-2" d="M239.56,15h.93v.84h0a1.63,1.63,0,0,1,1.4-1,2.87,2.87,0,0,1,.65.07v.89a1.35,1.35,0,0,0-.54-.1c-.89,0-1.47.85-1.47,2.2V20.4h-1Z"></path>
    <path class="cls-2" d="M243.72,12.49h1V20.4h-1Z"></path>
    <path class="cls-2" d="M250.34,19.64h0a2.15,2.15,0,0,1-1.83.89c-1.62,0-2.31-1.45-2.31-2.91s.76-2.72,2.32-2.72a1.92,1.92,0,0,1,1.78.86h0V12.49h1V20.4h-.94Zm-1.63.09c1.12,0,1.58-1.11,1.58-2s-.51-2-1.59-2-1.5,1-1.48,2S247.65,19.73,248.71,19.73Z"></path>
    <path class="cls-2" d="M253.49,13h1.19l-.93,2.59h-.91Z"></path>
    <path class="cls-2" d="M255.45,19.35a2.69,2.69,0,0,0,1.24.38c.45,0,1-.19,1-.77,0-1-2.33-.9-2.33-2.41,0-1.11.83-1.65,1.9-1.65a4,4,0,0,1,1.23.21l-.09.86a3,3,0,0,0-1-.27c-.51,0-.95.21-.95.65,0,1.1,2.33.78,2.33,2.5a1.7,1.7,0,0,1-1.88,1.68,3,3,0,0,1-1.47-.3Z"></path>
    <path class="cls-2" d="M201.55,25.7h1.06v6.43h3.07v.93h-4.13Z"></path>
    <path class="cls-2" d="M210.9,32.84a4.06,4.06,0,0,1-1.7.35c-1.91,0-2.78-1.16-2.78-2.91a2.5,2.5,0,0,1,2.52-2.72c1.79,0,2.37,1.31,2.37,3h-3.84a1.76,1.76,0,0,0,1.77,1.8,3.17,3.17,0,0,0,1.66-.54Zm-.65-3a1.35,1.35,0,0,0-1.33-1.5,1.49,1.49,0,0,0-1.45,1.5Z"></path>
    <path class="cls-2" d="M212.86,28.06a3.49,3.49,0,0,1,1.77-.5c1.54,0,2.16.76,2.16,2.22V32a8,8,0,0,0,.05,1.05h-.93v-.69h0a2,2,0,0,1-1.67.82c-1.16,0-2-.51-2-1.68,0-1.35,1.48-1.77,2.5-1.77.39,0,.66,0,1.05,0,0-.93-.33-1.4-1.32-1.4a2.56,2.56,0,0,0-1.57.55Zm2.94,2.44-.63,0c-.54,0-1.87.08-1.87,1a1,1,0,0,0,1,.88A1.35,1.35,0,0,0,215.8,31Z"></path>
    <path class="cls-2" d="M222.32,32.3h0a2.15,2.15,0,0,1-1.83.89c-1.63,0-2.31-1.45-2.31-2.91s.76-2.72,2.32-2.72a1.93,1.93,0,0,1,1.78.86h0V25.15h1v7.91h-1Zm-1.62.09c1.12,0,1.58-1.11,1.58-2s-.52-2-1.59-2-1.5,1-1.48,2S219.63,32.39,220.7,32.39Z"></path>
    <path class="cls-2" d="M226.1,26.48H225V25.37h1.12ZM225,27.68h1v5.38h-1Z"></path>
    <path class="cls-2" d="M227.79,27.68h1v.86h0a1.93,1.93,0,0,1,1.76-1c1.39,0,2,.86,2,2.31v3.19h-1V30.28c0-1.26-.27-1.87-1.14-1.92-1.12,0-1.63.91-1.63,2.21v2.49h-1Z"></path>
    <path class="cls-2" d="M239,32.83c0,1.63-.84,2.57-2.77,2.57a5.35,5.35,0,0,1-1.93-.37l.11-.91a4.18,4.18,0,0,0,1.94.48A1.62,1.62,0,0,0,238,32.76v-.53h0a2.24,2.24,0,0,1-1.8.83,2.36,2.36,0,0,1-2.3-2.64c0-1.39.78-2.86,2.4-2.86a1.76,1.76,0,0,1,1.77.93h0v-.81H239Zm-1-2.39c0-1.12-.51-2.08-1.57-2.08s-1.5,1.09-1.5,2,.57,1.9,1.5,1.9A1.67,1.67,0,0,0,238,30.44Z"></path>
    <path class="cls-2" d="M203,39.29h-2.29v-.93h5.63v.93h-2.29v6.43H203Z"></path>
    <path class="cls-2" d="M206.63,40.35h.93v.83h0a1.63,1.63,0,0,1,1.4-1,3,3,0,0,1,.66.07v.89a1.37,1.37,0,0,0-.55-.1c-.89,0-1.47.85-1.47,2.2v2.44h-1Z"></path>
    <path class="cls-2" d="M210.86,40.72a3.49,3.49,0,0,1,1.77-.5c1.54,0,2.16.76,2.16,2.22v2.23a8.91,8.91,0,0,0,0,1h-.92V45h0a2,2,0,0,1-1.66.82c-1.16,0-2-.51-2-1.68,0-1.35,1.47-1.77,2.5-1.77.39,0,.66,0,1.05,0,0-.93-.34-1.4-1.33-1.4a2.51,2.51,0,0,0-1.56.55Zm2.94,2.44-.63,0c-.54,0-1.87.08-1.87,1a1,1,0,0,0,1,.88,1.36,1.36,0,0,0,1.5-1.42Z"></path>
    <path class="cls-2" d="M218.75,45.72h-1.18l-1.93-5.37h1.08l1.46,4.38h0l1.49-4.38h1Z"></path>
    <path class="cls-2" d="M225.7,45.5a4,4,0,0,1-1.69.35,2.58,2.58,0,0,1-2.79-2.91,2.5,2.5,0,0,1,2.52-2.72c1.8,0,2.38,1.31,2.38,3h-3.84a1.76,1.76,0,0,0,1.77,1.79,3.16,3.16,0,0,0,1.65-.54Zm-.64-3a1.35,1.35,0,0,0-1.34-1.5,1.48,1.48,0,0,0-1.44,1.5Z"></path>
    <path class="cls-2" d="M227.57,37.81h1v7.91h-1Z"></path>
    <path class="cls-2" d="M234.87,39.29h-2.28v-.93h5.63v.93h-2.29v6.43h-1.06Z"></path>
    <path class="cls-2" d="M238.48,40.35h.93v.83h0a1.63,1.63,0,0,1,1.4-1,2.87,2.87,0,0,1,.65.07v.89a1.35,1.35,0,0,0-.54-.1c-.89,0-1.47.85-1.47,2.2v2.44h-1Z"></path>
    <path class="cls-2" d="M242.71,40.72a3.44,3.44,0,0,1,1.77-.5c1.54,0,2.16.76,2.16,2.22v2.23a8.91,8.91,0,0,0,0,1h-.93V45h0a2,2,0,0,1-1.66.82c-1.16,0-2-.51-2-1.68,0-1.35,1.48-1.77,2.5-1.77.39,0,.67,0,1.06,0,0-.93-.34-1.4-1.33-1.4a2.51,2.51,0,0,0-1.56.55Zm2.94,2.44-.63,0c-.54,0-1.87.08-1.87,1a1,1,0,0,0,1,.88,1.36,1.36,0,0,0,1.5-1.42Z"></path>
    <path class="cls-2" d="M252.17,45h0a2.18,2.18,0,0,1-1.84.89c-1.62,0-2.31-1.45-2.31-2.91s.76-2.72,2.32-2.72a1.92,1.92,0,0,1,1.78.86h0V37.81h1v7.91h-1Zm-1.63.09c1.12,0,1.58-1.11,1.58-2s-.51-2-1.59-2-1.49,1-1.47,2S249.48,45.05,250.54,45.05Z"></path>
    <path class="cls-2" d="M259,45.5a4.1,4.1,0,0,1-1.7.35c-1.91,0-2.78-1.16-2.78-2.91A2.5,2.5,0,0,1,257,40.22c1.79,0,2.37,1.31,2.37,3h-3.84a1.76,1.76,0,0,0,1.77,1.79,3.2,3.2,0,0,0,1.66-.54Zm-.65-3A1.35,1.35,0,0,0,257,41a1.48,1.48,0,0,0-1.44,1.5Z"></path>
    <path class="cls-2" d="M204.9,52.13a3.22,3.22,0,0,0-1.38-.31c-.59,0-1.28.22-1.28,1,0,1.42,3.16,1.09,3.16,3.52,0,1.57-1.21,2.19-2.69,2.19a4.9,4.9,0,0,1-1.51-.31l.11-1a4.41,4.41,0,0,0,1.53.36,1.32,1.32,0,0,0,1.44-1.2c0-1.65-3.16-1.19-3.16-3.48,0-1.31,1-2,2.36-2a4.92,4.92,0,0,1,1.57.26Z"></path>
    <path class="cls-2" d="M206.79,50.47h1v3.31h0a2,2,0,0,1,1.73-.9c1.39,0,2,.86,2,2.31v3.19h-1V55.6c0-1.26-.27-1.87-1.14-1.92-1.13,0-1.63.91-1.63,2.21v2.49h-1Z"></path>
    <path class="cls-2" d="M215.63,52.88a2.65,2.65,0,0,1,2.73,2.81,2.74,2.74,0,1,1-5.47,0A2.65,2.65,0,0,1,215.63,52.88Zm0,4.83a1.81,1.81,0,0,0,1.68-2,1.71,1.71,0,1,0-3.37,0A1.81,1.81,0,0,0,215.63,57.71Z"></path>
    <path class="cls-2" d="M225.72,58.38h-1.15l-1.39-4.51h0l-1.36,4.51h-1.15L218.92,53H220l1.23,4.45h0L222.63,53h1.17l1.35,4.45h0L226.48,53h1Z"></path>
    <path class="cls-2" d="M227.87,52.72a2.22,2.22,0,1,1,2.22,2.22A2.23,2.23,0,0,1,227.87,52.72Zm3.9,0a1.68,1.68,0,1,0-1.68,1.79A1.7,1.7,0,0,0,231.77,52.72Zm-2.53-1.26h.93c.6,0,.93.2.93.73a.64.64,0,0,1-.66.68l.68,1.1h-.48L230,52.89h-.29V54h-.46Zm.46,1.07h.42c.27,0,.51,0,.51-.37s-.27-.35-.51-.35h-.42Z"></path>
  </g>
  <g id="Globe">
    <path class="cls-3" d="M53.15,9.21A33.31,33.31,0,1,0,86.46,42.52,33.31,33.31,0,0,0,53.15,9.21Z"></path>
    <path class="cls-1" d="M80.78,42.1a.47.47,0,0,1,.15.21,4.13,4.13,0,0,0,.59.79l.15,0a.51.51,0,0,1,.29.17,3.08,3.08,0,0,0,.79.37c.09,0,.85-.22.91-.09l.14.33a.23.23,0,0,0,.22.16c.34,0,1.11.15,1.53.2,0-.58,0-1.17,0-1.76A32.27,32.27,0,0,0,77.4,21l-.61.18a.75.75,0,0,0-.16-.33,10,10,0,0,0-1.45.94.79.79,0,0,1-.05.25.41.41,0,0,1-.47,0c-.06-.05-.29-.3-.23-.33a1.55,1.55,0,0,1,.22-.12.1.1,0,0,0,0-.14,7.82,7.82,0,0,0-1-.33l0,0s0,0,0,.06c.24.14.32.64.32.69s.27.26.28.35a.92.92,0,0,1,0,.16c0,.05-.31.05-.4,0a.3.3,0,0,0-.33.08c0,.05-.29.26-.35.33s.1.5.11.52a.12.12,0,0,1,0,.15,1.84,1.84,0,0,1-.87-.24s-.3.11-.32.16a.15.15,0,0,0,.05.15c.11.1.46.45.39.44s-.61-.26-.71-.28a.2.2,0,0,1-.14-.11,4.16,4.16,0,0,1-.24-.57c0-.2-.07-.3-.29-.38a1.35,1.35,0,0,1-.48-.32,1.37,1.37,0,0,1,.4.09,6.67,6.67,0,0,0,1.07.26,1.56,1.56,0,0,0,.78-.07.45.45,0,0,0,.12-.06,1,1,0,0,0-.18-.94.67.67,0,0,1-.2-.12.63.63,0,0,0-.25-.1c-.15,0-1.91-.58-2-.58a1,1,0,0,1-.24,0c-.07,0-.36-.27-.4-.23a2.14,2.14,0,0,1-.69-.06s.45-.27.4-.29a3,3,0,0,0-.66-.2s-.24.09-.25.08-.06-.22-.14-.24-.26.22-.28.25a.08.08,0,0,1-.07,0l0,0c0-.06-.21-.15-.22-.18a10.35,10.35,0,0,0-1.54.52s0,0,0,.07,0,.07,0,.1-.34.07-.33.07a3.16,3.16,0,0,0-.69.24.12.12,0,0,0,.06.19s.1.12,0,.14-.1.07-.17,0a.59.59,0,0,0-.23,0c-.05,0-.1,0-.08-.07l.08-.18,0,0h0l-.33.27s0,.07,0,.1,0,.09,0,.13l0,.06h.17c.11,0,.22,0,.33-.06l.19,0h0s-.47.27-.5.31,0,.1,0,.15a1,1,0,0,1-.22.32,2.1,2.1,0,0,0-.44.64,2,2,0,0,1-.06.47c0,.06-1.24,1-1.22,1s-.22.3-.38.28l-.32.2s0,0,0,0-.4.26-.42.29a6.33,6.33,0,0,0,.12,1,.93.93,0,0,1,.1.2s-.12.22-.16.26S62,27,62,27s-.15.28-.11.31a1.56,1.56,0,0,0,.59.33,8.71,8.71,0,0,0,.85-.48,3.91,3.91,0,0,1,.43-.27s.41,1,.5,1.16a2.86,2.86,0,0,1,.23.65.59.59,0,0,0-.44.18s.06.28.09.33a.11.11,0,0,1,0,.08S63.86,29,63.7,29s.07-.28.19-.33-.23-.31-.16-.47a.41.41,0,0,0,0-.22c0-.05-.06-.1-.1-.09a4.83,4.83,0,0,1-.64.36s-.12.68-.13.71.1,1.16,0,1.13a4,4,0,0,0-1.4.62,1,1,0,0,1-.51.71,2.88,2.88,0,0,0-.42.45,2.16,2.16,0,0,1-.82.5c-.09,0-.32-.13-.37-.13s-.05.29,0,.38-.6,0-.66.07a1.18,1.18,0,0,0-.48.23A6.36,6.36,0,0,0,59.37,34a.25.25,0,0,1,.13.25,3.51,3.51,0,0,1-.4,1.25c-.18-.07-1.05,0-1.21-.08s-1.11-.12-1.27.08c0,0-.09,0-.14.05l-.1,0a.16.16,0,0,0-.08.17,3.78,3.78,0,0,1-.06,1.69,1.48,1.48,0,0,0-.12.29.2.2,0,0,0,0,.2,1.8,1.8,0,0,1,.21.72.16.16,0,0,0,0,.08c.13,0,.78.07.83.15l.2.3a.26.26,0,0,0,.33.08l.22-.14a.94.94,0,0,1,.59-.16,3.77,3.77,0,0,0,.47,0A9.75,9.75,0,0,0,60,38c0-.06.08-.13,0-.19-.2-.25-.09-.45.09-.64s.4-.49.63-.5a.61.61,0,0,0,.43-.54,2.63,2.63,0,0,1,.07-.46.32.32,0,0,1,.32-.21c.23.05.9.23,1,.14s.92-.63,1.09-.57a2.24,2.24,0,0,1,.53.66c.21.19,1.55,1.18,1.76,1.3a.63.63,0,0,0,.31.27.35.35,0,0,1,.11.1,2.85,2.85,0,0,1,.14.5c-.05.15-.1.28-.3.32s-1.13.17-1.13.2A9,9,0,0,0,66,39s.18-.16.18-.21.06-.4.17-.39a.26.26,0,0,0,.26-.13c.09-.15.17-.31.25-.46s-.1-.56-.09-.63A.18.18,0,0,1,67,37.1c.09.06.16.13.24.19a.1.1,0,0,0,.09,0c.07-.09.06-.24,0-.28a3.64,3.64,0,0,0-.81-.47c-.1,0-.16-.26-.19-.27l-.2,0a.55.55,0,0,1-.41-.21c-.08-.09-.75-.86-.81-.91s.13-.71.21-.74a1.06,1.06,0,0,1,.15.29.71.71,0,0,0,.44.18.14.14,0,0,1,.16.11.9.9,0,0,0,.43.49c.15.1,1,.5,1.07.59s.19.2.29.3.08.84.25.95l.6.93s-.06.11,0,.11v0h0a4.56,4.56,0,0,0,.41.6.72.72,0,0,0,.41.08c.06,0,.18-.37.17-.52s0,0,0,0,.22-.07.34-.1a.62.62,0,0,0-.19-.42.74.74,0,0,1-.17-.12,4.35,4.35,0,0,1-.38-.71s.45.15.52,0,.13-.23.15-.22.38-.08.49-.07a.3.3,0,0,1,.26.28,1.84,1.84,0,0,1,0,.62s.35.2.33.23-.18.08-.26.13,0,0,0,0,.32.23.36.26-.08.12,0,.16.55.51.63.49a.3.3,0,0,1,.36.13.6.6,0,0,0,.22.12.63.63,0,0,0,.47-.18c.08-.13.19-.12.32-.09a.67.67,0,0,1,.31.17.51.51,0,0,0,.48.12.81.81,0,0,0,.48-.28.16.16,0,0,1,.19,0,1.31,1.31,0,0,0,.39,0c-.06.18-.45,2.33-.56,2.46a.23.23,0,0,1-.17.11c-.26,0-1-.1-1.07-.11s-.83.23-.94.21c-.37-.08-2.6-.79-2.66-.8a1.3,1.3,0,0,0-.87.07c-.18.09-.22.91-.26,1l-.11.12a5.56,5.56,0,0,1-1.72-.62,1.46,1.46,0,0,1-.07-.19A.34.34,0,0,0,66.1,41c-.29-.11-1.74-.52-1.91-.57a.19.19,0,0,1-.06-.23l.23-.22c.1-.12-.12-.68-.11-.71l.12-.29a1.43,1.43,0,0,0-.7-.24c-.14,0-3.21.33-3.32.39a5.38,5.38,0,0,1-1.45.6c-.14-.05-.95-.1-1-.13s-.35-.18-.41,0a1.51,1.51,0,0,0-.1.3c-.05.24-.78.72-1,.83a3,3,0,0,0-.55,1.07c0,.11,0,.21,0,.32a2.86,2.86,0,0,1-.43.69,2.35,2.35,0,0,1-.63.33.43.43,0,0,0-.29.2,2,2,0,0,1-.39.48.74.74,0,0,0-.28.35c-.13.24-1.05,1.86-1.06,2a6.63,6.63,0,0,0,.27,1A3.52,3.52,0,0,1,52.71,49,8.87,8.87,0,0,0,53,50.06c0,.12.45.32.55.35s1.06,1.46,1.16,1.63a16.05,16.05,0,0,0,2.2,1.45A16.82,16.82,0,0,1,59,53.28a1.2,1.2,0,0,0,.44,0,15.26,15.26,0,0,1,2.13-.62c.05,0,1,.92,1.13.93s1-.16,1.12,0,.34.42.35.6-.43,1.45-.43,1.48a3.4,3.4,0,0,0,.75,1c.07.06.72,1.1.83,1.26a1.93,1.93,0,0,1,.18.59s0,.08,0,.12.26,1.17,0,1.34a9.43,9.43,0,0,0-.71,1.82c0,.08,2.11,4.88,2.12,5a2.88,2.88,0,0,0,.49.21s1.75-.15,1.78-.16,1.63-.54,1.87-.68A14.43,14.43,0,0,0,72.47,65c.06-.11.17-.64.25-.69a6.42,6.42,0,0,0,1-.53,10.41,10.41,0,0,1,.07-1.3c.37-.23,1.71-1,1.84-1.06a1.43,1.43,0,0,0,.64-.6c.07-.11.2-1.36.26-1.53s-.32-1-.35-1.21c0,0-.15-.62,0-.8A8.73,8.73,0,0,1,77,56.16a1.47,1.47,0,0,0,.43-.35,19.65,19.65,0,0,1,1.82-1.57,5,5,0,0,0,1.54-1.79,3.66,3.66,0,0,1,.45-.79,1.46,1.46,0,0,0,.28-.54,3.49,3.49,0,0,0,.11-.78c0-.07-.12-.14-.18-.12l0,0a14.92,14.92,0,0,1-2.63.64,3,3,0,0,1-.45-.57c.11-.19.11-.24,0-.35a1.05,1.05,0,0,1-.23-.24c-.13-.21-1.3-1.08-1.35-1.37s-.82-1.22-.82-1.32a6.31,6.31,0,0,0-.14-.87c0-.27-.63-.74-.65-.79a.4.4,0,0,1,0-.15c0-.18-.68-1.34-.77-1.72,0-.07.51-.36.56-.29s.44.7.63.95.31.64.41.68a.63.63,0,0,1,.42.42,4.88,4.88,0,0,0,.52,1.34l.25.16a.86.86,0,0,1,.29.41c0,.2.79,1.26.73,1.48a.28.28,0,0,0,0,.2,4.25,4.25,0,0,1,.2.72,2.15,2.15,0,0,0,.1.27A32.28,32.28,0,0,0,82,48.53a.42.42,0,0,1,.31-.31c.21-.06,1.75-1.07,1.81-1.11a1.67,1.67,0,0,0,.09-.42c0-.08.52-.62.65-.88a.29.29,0,0,0-.07-.4,1.39,1.39,0,0,1-.23-.31.3.3,0,0,0-.23-.16,1.76,1.76,0,0,1-.39-.06.39.39,0,0,1-.2-.12.77.77,0,0,1-.22-.44c0-.15,0-.31,0-.46s0,0,0,0-.07,0-.09,0a4.85,4.85,0,0,0-.55.65c-.13.2-.82.27-1,.35s-.12,0-.17-.07a3,3,0,0,1-.15-.73.15.15,0,0,0,0-.09s-.22.1-.25.16-.09.08-.15,0-.24-.59-.35-.72-.55-.72-.64-.9a1.08,1.08,0,0,1,0-.35A1.83,1.83,0,0,1,80.78,42.1Z"></path>
    <polygon class="cls-1" points="42.32 70.74 42.32 70.74 42.32 70.74 42.32 70.74"></polygon>
    <path class="cls-1" d="M45.84,56.85a3.33,3.33,0,0,1-.59-.19c-.13-.1-.83-.6-1.06-.73s-1.06-.17-1.44-.28a.83.83,0,0,0-.28.09s-.32-.39-.37-.4c-.21,0-2-.82-2.06-.83h0a2.19,2.19,0,0,0,0-.56c-.07-.08-.56-.92-.63-1a6.4,6.4,0,0,0-1-.69,8.28,8.28,0,0,0-1.1-.18,7.11,7.11,0,0,1-.66-.58,3.77,3.77,0,0,0-.77-.49,7.4,7.4,0,0,1-.71-.66c0-.06.15-.13.13-.16a3.67,3.67,0,0,1-.62-.15,0,0,0,0,0-.07,0c0,.05-.35.35-.53.2a5.56,5.56,0,0,0-.84-.22,2.53,2.53,0,0,0-.66-.54s-.51.45-.55.39.13-.46.09-.48a.52.52,0,0,0-.36.1c-.08.1-.87.36-.92.43s-.36.69-.41.77a.66.66,0,0,0,0,.15s0,0-.07,0-.85-.49-1-.4l-.12.08a.23.23,0,0,1-.31,0,.83.83,0,0,1-.49-.4l-.21-.36a.65.65,0,0,1,0-.13,5.81,5.81,0,0,1,.07-.61c0-.15,0-.74,0-.9A.83.83,0,0,0,28,48s-1.47-.3-1.45-.32.48-1.86.52-1.93,0-.34-.08-.34-.93.18-1,.3a3,3,0,0,1-.26.79c0,.18-.11.17-.23.11s-.65.15-.73,0-.35-.32-.39-.43-.37-1.23-.37-1.32a12.18,12.18,0,0,1,.49-2.54A6.92,6.92,0,0,1,25.91,42c.08.18.46.09.52,0a1.19,1.19,0,0,0,.05-.26,6.4,6.4,0,0,1,1.69,0c.08.12.42,1.49.5,1.74a1.23,1.23,0,0,0,.19.31.13.13,0,0,0,.23,0,2,2,0,0,0,.16-.63,17.71,17.71,0,0,1-.22-2,.35.35,0,0,1,0-.18c.14-.19,1.16-1.09,1.23-1.16s.67-.61.7-.66,0-.25,0-.34a7.08,7.08,0,0,0,0-.93s.13.26.15.28l0,0a4.16,4.16,0,0,0,.28-.69s.46-.48.5-.68.56-.32.59-.34,0-.17,0-.17c.24,0,.47-.11.7-.11,0,0,.08-.05.11-.08s0-.64,0-.74a4.83,4.83,0,0,1,1.39-.81c.07,0,.17-.23.21-.24s.28-.08.43-.12,0,0,0,0-.52.6-.52.66a.32.32,0,0,0,.13.22s2.19-1.14,2.22-1.16a1.55,1.55,0,0,0-.17-.54,2.38,2.38,0,0,0-.4.49c-.05.07-.23.05-.27.05s0,0,0,0a5.62,5.62,0,0,1-.47-.52l-.07,0a2,2,0,0,0,.11.31h0c-.16,0-.23-.1-.23-.28s.09-.57,0-.58-.06,0,0-.06.4-.35.37-.42a.32.32,0,0,0-.08-.14.39.39,0,0,0-.39-.09,3.37,3.37,0,0,0-1.14.49.24.24,0,0,1,.1-.19,1.58,1.58,0,0,1,.5-.32.44.44,0,0,0,.29-.23.22.22,0,0,1,0-.08c.1-.08.19-.18.29-.25s.2,0,.29,0a8,8,0,0,1,1.2.08c.18,0,.35-.08.53,0l.13,0,.13-.07a1.06,1.06,0,0,0,.32-.28.42.42,0,0,1,.28-.17l.23-.05a1.16,1.16,0,0,0,.59-.28,2.13,2.13,0,0,0,.22-.69s-.14-.33-.3-.3c0,0,0-.27-.13-.28h-.18l.06-.05.13-.05c.06,0-.44-.44-.57-.51s-.05,0-.05-.06a.54.54,0,0,0-.21-.34l-.11-.16a.11.11,0,0,1,0-.16c0-.06.12-.11.17-.17a.12.12,0,0,0,0-.16A16,16,0,0,1,38.4,26l-1.14.9-.21.11c-.08,0-.45-.44-.43-.53a5.48,5.48,0,0,1,.43-.92s0-.1,0-.11a1.77,1.77,0,0,1-.45-.17s0-.18,0-.21-.15-.38-.18-.43-.37,0-.42-.05-.55-.15-.61-.16a.47.47,0,0,0-.44.24c-.06.1,0,.4-.1.46a3.47,3.47,0,0,0-.25.29,1.26,1.26,0,0,0-.06.52c0,.1-.53.58-.68.73a.19.19,0,0,0,0,.23,4.57,4.57,0,0,1,.11.77c0,.17-.14.34-.11.52a7.34,7.34,0,0,1-.89.64l-.32.15c-.07,0-.36,1.51-.38,1.55a2.92,2.92,0,0,1-.44.42s-.12,0-.13,0l0-.12c0-.07-.18-.51-.24-.67s.44-1.16.47-1.24,0-.1,0-.1a2.83,2.83,0,0,1-.72-.12A11.72,11.72,0,0,0,30,27.51a.22.22,0,0,0-.18,0,.82.82,0,0,1-.32.09,5.35,5.35,0,0,0,.26-1,0,0,0,0,0,0,0h-.14c-.06,0-.09,0-.09-.08s0-.08,0-.11,1.83-2.06,1.91-2.21.19-.05.24-.06.31-.35.32-.41a.5.5,0,0,0,.45-.25.1.1,0,0,1,.11,0,11.17,11.17,0,0,0,1.13-.66,1.88,1.88,0,0,1,.43-.37h0l-.14.22c-.14.23-.34.45-.47.69a.3.3,0,0,1-.13.12l-.11.08a.12.12,0,0,0,0,.17h.07s.07.05,0,.12l0,.07c0,.1,0,.14.12.11a.46.46,0,0,0,.16-.07c.16-.16.39-.23.53-.43,0,0,.06,0,.07,0s.14.08.12.18,0,.08,0,.09l.27.08a.08.08,0,0,0,.08,0l.18-.14c0-.06,0-.14,0-.16l0,0q-.12,0-.09-.15a.28.28,0,0,0,0-.27.2.2,0,0,1-.08-.14c0-.14-.18-.18-.21-.31s0,0-.06,0-.08,0,0-.08l.17-.15s0-.05,0-.07,0,0-.06,0-.1.06-.16,0h-.14l.06,0c.13-.1.13-.1.1-.22v0a0,0,0,0,1,.05-.06c.12,0,.24-.05.24.09s0,0,0,0a5.26,5.26,0,0,0,1.16-.38.52.52,0,0,0,.25-.18c.06-.06.22-.65.26-.72a3.59,3.59,0,0,0,.5-.33c.09-.07,0-.48-.13-.46s-.08,0-.07-.1h0s.82.21.86.19a.47.47,0,0,0,.09-.06,1.89,1.89,0,0,0,.46-.36l.2.07s0,.07,0,.09a.83.83,0,0,0-.12.16c0,.05,0,.08,0,.13a.41.41,0,0,0,.08.29s-.14.11-.18.13a.26.26,0,0,0-.09.09,1.18,1.18,0,0,0,.23.27,1.82,1.82,0,0,1,.2.71.2.2,0,0,1-.13.12c-.09,0-.48.32-.62.4s-.34.18-.28.47a.15.15,0,0,1,0,.06,1.33,1.33,0,0,0-.42.12,1.36,1.36,0,0,1-.57-.09.07.07,0,0,0-.07,0c-.09.09-.38.31-.42.36a.19.19,0,0,0,0,.22c.09.12,1,0,1.11,0a.12.12,0,0,1,.13.09c0,.11.07.64.09.68a.47.47,0,0,0,.24.24h0s.86.54.94.55.06,0,.08,0a1.15,1.15,0,0,0-.23-.76.2.2,0,0,1,0-.2,2.65,2.65,0,0,1,.65.52,1.19,1.19,0,0,0,.08.2s0,0,.06,0,.05,0,0-.07a.28.28,0,0,1,.08-.3c.07-.07.3-.31.3-.38a2,2,0,0,1,0-.53c0-.09-.2-.29-.25-.35s0-.35-.05-.44,0,0,0-.06a1.77,1.77,0,0,0,.34-.24s.1,0,.11,0a1.49,1.49,0,0,1,.19.5,1.27,1.27,0,0,0,0,.22.51.51,0,0,0,.25.14s.06,0,.07,0a1.71,1.71,0,0,0,.12-.23,4.23,4.23,0,0,1,.81-.52.61.61,0,0,0,.16-.16.14.14,0,0,0,0-.1,6.1,6.1,0,0,0-1.08-1.14s0,0,0-.08a2.09,2.09,0,0,1,.48-.28.21.21,0,0,0,.12,0s-.05-.22,0-.3.06-.37.06-.46-.4-.42-.43-.43a.44.44,0,0,0,0-.34,1.15,1.15,0,0,0-.5-.07h0s.12-.12.17-.16,0-.05,0-.06-.05,0-.06-.06.08-.21,0-.24l-.28-.18H40a.16.16,0,0,0,.11-.07,1.18,1.18,0,0,0,.08-.31c0-.11-.45-.23-.55-.27s-.1,0-.15.05a1.58,1.58,0,0,0-.15.12h0l0,0c0-.12,0-.13-.11-.14a6.85,6.85,0,0,0-1.57.75s0,.06-.06.07a.93.93,0,0,0-.2.09c-.08,0-.13.08-.13.13a1.09,1.09,0,0,0,0,.18s0,0,0,.05l0,0s-.06,0-.07,0a.27.27,0,0,1,0-.35l0,0,.13-.12a8.94,8.94,0,0,1,1.14-.79l.08-.05s0,0,0,0a.14.14,0,0,0-.08-.07,1.29,1.29,0,0,0-.77.11l-.4.2a6.53,6.53,0,0,1-.56.35l-.79.69c-.07.08-.06.15,0,.17l.25.07a.15.15,0,0,1,0,.06.11.11,0,0,1,0,.06s-.06,0-.08,0L36,19.06a.28.28,0,0,0-.27.13.64.64,0,0,0-.06.16c0,.09,0,.13,0,.19s.67.24.66.3h0l-.08,0c-.12,0-.46.51-.49.53l-.18.13c-.13,0-.37.3-.42.35a.21.21,0,0,1-.15.07s0-.07-.06-.08-.39.48-.42.46a1,1,0,0,1,.22-.62,1,1,0,0,0,.15-.53,6.24,6.24,0,0,0-.56.42l0,0s.14-.27.17-.38.07-.07.12-.09.12-.1.07-.13a1.94,1.94,0,0,0-.3-.13s0,0,0-.06a4.4,4.4,0,0,0,.51-.35,4.39,4.39,0,0,1,.31-.69c0-.11.08-.24.06-.35s0-.07.1-.1.66-.44.67-.43l.14,0a11.16,11.16,0,0,0,1.25-.62c.06,0,.07-.13,0-.15h0c-.15,0-.67-.14-.79-.11s-.85.56-1,.66-.36.42-.47.55a3.07,3.07,0,0,1-.38.21,12.82,12.82,0,0,0-1.16,1,.94.94,0,0,0,0,.3h0s-.41-.22-.44-.2-.83.54-.81.56.21.13.21.27h0c-.06,0-.31.06-.36.13a2.72,2.72,0,0,1-.3.29.18.18,0,0,1-.14,0s-.57,0-.61,0a1.64,1.64,0,0,1-.38-.36c0-.1.06-.55,0-.53l-.51.11a.43.43,0,0,0-.21.15.1.1,0,0,0,0,.14s.14,0,.16-.05l.45-.13s0,0,0,0l0,0a6.67,6.67,0,0,0-.88.46c-.08.11-.26.41-.29.43s0-.34,0-.41,0-.11,0-.17a.08.08,0,0,0-.09,0l-.15.05-.08,0a32.31,32.31,0,0,0-8.48,21.18,3.63,3.63,0,0,0,.21.58.84.84,0,0,1,.06.14.73.73,0,0,0,.14.32l.13.17a.16.16,0,0,1,0,.12l0,.08a.2.2,0,0,0,0,.2,1.33,1.33,0,0,0,.16.17.31.31,0,0,1,.12.24.25.25,0,0,0,.06.14,4.8,4.8,0,0,1,.5,1.4,1.56,1.56,0,0,0,0,.58c.05.12.36.4.42.52A13.54,13.54,0,0,0,24,47.58c.36.17.36.17.71,0a.23.23,0,0,1,.28.08,7.54,7.54,0,0,1,.58.67,4,4,0,0,0,1.25.54,5.07,5.07,0,0,1,.64,1c0,.15.38.33.41.37s.4.53.51.56a.2.2,0,0,0,.11,0c.12,0,.49.27.58.36s.2-.27.23-.29.27-.3.3-.28a16.86,16.86,0,0,1,.79,2.13,9.26,9.26,0,0,1-.74,1,5.7,5.7,0,0,0-.08,1.16.49.49,0,0,0,.24.25l0,0a1.73,1.73,0,0,1-.17.34,1.9,1.9,0,0,0,.14.89l.26.16c.1.07,2,2.78,2.08,2.87a7.85,7.85,0,0,0,.93.67c.06,0,1,.67,1.25.82a8.35,8.35,0,0,1,.59,1.58s.31.81.45,1.16c0,.09.56,1.6.67,1.73a3.53,3.53,0,0,1,.28.67,4.76,4.76,0,0,1,.12.73,7.21,7.21,0,0,0,.92,1.19s0,.08,0,.15a.07.07,0,0,0,0,.06l.23.23s.12,0,.14,0,0-.05,0-.09a1.3,1.3,0,0,1-.1-.15,5.9,5.9,0,0,1,.8.85s0,0,0,0,.06.21.14.22a.22.22,0,0,1,.12.06.4.4,0,0,0,.12.15c-.07,0-.13,0-.16,0s0,0,0,.06.25.16.3.18.41.18.49.19a7,7,0,0,0,.67.35.88.88,0,0,1,.34.16s0,0,0,0l1.05.18s0,0,0,0l.34.07a1,1,0,0,1,.26,0s.92,0,1,0,.05,0,0,0,0,0,0,0h.15l.14,0h0a.39.39,0,0,0-.15,0l-.65-.08a6.85,6.85,0,0,0-.89-.21h-.13s0,0,.1,0h.09s0,0,0,0l-.52-.2c-.08,0,0-.56,0-.59s-1-.41-1-.48a1.48,1.48,0,0,1,.27-.11s0,0,0,0-.23-.36-.18-.4.26-.11.22-.16l-.13-.11s-.66-.28-.68-.3.54.08.64.08-.1-.51-.12-.53,1.27-.17,1.25-.27a10.17,10.17,0,0,0-.85-.94,2.23,2.23,0,0,1,.6.13l.37,0c.21,0,.42-.29.49-.34s.08-.41.07-.51h0c.22,0,.31-.1.31-.25a0,0,0,0,0,0,0h0c.08,0,.2-.48.31-.66s-.22-.9-.05-1,.78-.44.84-.5.11-.08.12-.16l.32,0c.08,0,.57,0,.65-.11l.21-.41a3.39,3.39,0,0,1,.18-.39.39.39,0,0,0,0-.32c0-.09-.06-.19,0-.26a3.39,3.39,0,0,0-.05-1.13c0-.15-.07-.3-.09-.45a7,7,0,0,1,.45-.7,4.58,4.58,0,0,1,.51-.61,2.06,2.06,0,0,0,.21-1A4.39,4.39,0,0,0,45.84,56.85Z"></path>
    <path class="cls-1" d="M44.2,21.09h0Z"></path>
    <path class="cls-1" d="M53.4,20.4l0,0a1.79,1.79,0,0,1-.51-.08,1.31,1.31,0,0,0-.48,0l0,0,.24-.12a.2.2,0,0,0,.16-.17,1.11,1.11,0,0,1,.1-.27,3,3,0,0,0,.22.41,1.14,1.14,0,0,0,.47.1c.17,0,.19,0,.22-.13s0-.21.06-.31a1.18,1.18,0,0,0-.38-.67,1.61,1.61,0,0,1-.1-.44s.31.46.42.47.11,0,.11,0a1.78,1.78,0,0,1,.17-.3l.55-.45a.41.41,0,0,0,.07-.11c0-.05-.37-.21-.36-.22a5.58,5.58,0,0,1,.61-.05c.15,0,.26-.18.16-.24s-.13-.19-.16-.2,0,0,0-.05a.06.06,0,0,1,.07,0,.29.29,0,0,0,.13,0c.06,0,.1-.48.15-.51s0-.06,0-.07-.16,0-.2-.06h0v0c.07-.05-.07-.15-.07-.15a1.93,1.93,0,0,1,.4-.14l0,0c.07,0,.17.09.13.19a.31.31,0,0,0,0,.23h0s.05-.05.05-.08a.31.31,0,0,1,.14-.28.34.34,0,0,0,.14-.22.12.12,0,0,0-.1-.1h-.16l-.1,0a0,0,0,0,1,0,0s0,0,.06,0,.18,0,.13-.1a.18.18,0,0,0-.1-.09l-.1-.07h0l0,0a.22.22,0,0,0,.24-.06c.06-.08.88-.83,1-.87l1.16-.51.13,0c.22-.06.23-.1.1-.17l-.05,0a1.26,1.26,0,0,0-.56-.09c-.13,0-1.22.13-1.15.08l.07,0c.17-.11,0-.13-.21-.12h0l-.07,0a1.9,1.9,0,0,1-.41,0c-.08,0,0-.05.21-.05l.48,0a2.31,2.31,0,0,0,.48-.07c.08,0,.11-.06,0-.07l-.24-.06c-.13,0-.41-.12-.45-.12-.26,0-2-.12-2.12-.1h-.05a.41.41,0,0,1-.2,0h-.08v0s0,0,0,0h-.08c-.09,0-1.3.12-1.4.12l-.1,0,0,0s-.09.31-.14.31-.25-.25-.26-.28,0,0-.12,0a7.91,7.91,0,0,0-.78.27s0-.06,0-.08.06-.08.09-.12,0,0,0,0h-.09a.15.15,0,0,0-.1.05s0,0-.07.06a1,1,0,0,1-.16.05h0s0,0,0,0l.17-.08a.21.21,0,0,0,.1-.07s0,0-.09,0-.94.07-1.12.07a.46.46,0,0,0-.16,0l0,0-.85.21-.07,0a.36.36,0,0,1-.14,0,11.17,11.17,0,0,0-1.55.31c-.09,0-.09.08,0,.09l.25,0v0s0,0-.06,0-.5.22-.61.27-1,.1-1.13.1a6.45,6.45,0,0,0-1,.22c-.09.05-.13.09-.09.13a.47.47,0,0,1,.1.18s0,.08,0,.12a2,2,0,0,0,.6,0l.07,0a0,0,0,0,1,0,0s-1,.09-1.09.12-.24.14-.18.18.07.11.17.14,0,0,0,0a.86.86,0,0,0-.24.13.32.32,0,0,0,.2.23c.08,0,.31-.09.37-.08a1.73,1.73,0,0,0,.69,0h0a6.74,6.74,0,0,1,.75.36s-.48,1.56-.48,1.57-.44.57-.42.58l-.2.23,0,.15H45l.31-.07s-.13.17-.19.23,0,.08,0,.08l0,.22-.51-.07c-.09,0-.19.13-.19.13v0s0,.07,0,.09a3.18,3.18,0,0,0-.36.37c0,.13.13.31.13.31h0l.48-.07v-.43l.54.14-.11.17h0s-.85.6-.92.61a14.08,14.08,0,0,1-.84,1.23,10.86,10.86,0,0,0-.08,1.11s.15,1.76.15,1.76a.12.12,0,0,0,0,.08l.14.18c.15,0,.2.09.17.22s0,0,.07,0l.27-.07.14,0c.09,0,.16,0,.15.07a.34.34,0,0,0,.11.3s0,.07.05.1.07.07.1.06.2.05.31.05a.29.29,0,0,0,.2-.11,10,10,0,0,0,.5-.87l.28-.51.57-.54.18-.41.22-.29,0-.07.56-.37.5,0,.91-.37.44-.25.43-.41.82-.37,1.09-.25s1.45-.63,1.76-.82C53.4,20.46,53.4,20.43,53.4,20.4Z"></path>
    <path class="cls-1" d="M79.24,59.29a.39.39,0,0,0-.15.23.29.29,0,0,1-.17.19.13.13,0,0,1,0,.07c-.09.06-.19.09-.23.21a.49.49,0,0,1-.29.29c-.13.06-.23.17-.36.23a3.17,3.17,0,0,1-.41.12h0l-.4.15a2.48,2.48,0,0,1-.19.26.51.51,0,0,0-.11.49.83.83,0,0,0,0,.15.34.34,0,0,1-.12.4c-.13.13-.22.27-.36.39a.47.47,0,0,0-.17.5.43.43,0,0,1,0,.25,1.46,1.46,0,0,0,0,.22.33.33,0,0,0,0,.13.75.75,0,0,0,.42.25c.1,0,.2,0,.31-.08l.22,0a.51.51,0,0,0,.39-.21,2.56,2.56,0,0,0,.2-.26c.14-.22.27-.45.42-.67s.41-.68.64-1a1.2,1.2,0,0,0,.15-.3,2.76,2.76,0,0,1,.18-.39c.07-.11.07-.25.25-.3a.33.33,0,0,0,.09-.2c0-.12,0-.24,0-.36a.89.89,0,0,0-.2-.72S79.27,59.27,79.24,59.29Z"></path>
    <path class="cls-1" d="M75.14,19.19a1,1,0,0,0,.17,0,.32.32,0,0,1,.25.09.29.29,0,0,1,.1.12c0,.06.25.15.44.22-.44-.44-.88-.86-1.34-1.27a2.43,2.43,0,0,0,.25.84A.31.31,0,0,0,75.14,19.19Z"></path>
    <path class="cls-1" d="M40.85,15c.1,0,.32,0,.38,0l.14-.05h0l.59-.18h0a1.15,1.15,0,0,1-.37.17.64.64,0,0,0-.22.13s0,0,0,0h.07c.11,0,.13,0,.09.08l-.06.08a.44.44,0,0,1-.15.1h-.07a.59.59,0,0,0,.06-.14s0,0-.05-.05a.58.58,0,0,0-.26,0l-.07,0a.27.27,0,0,0-.08.07.94.94,0,0,0-.13.24h-.11a1.67,1.67,0,0,0-.67.12h0l-.13.05c-.06,0-.32.11-.28.13a6.72,6.72,0,0,0,.72.27s.39-.11.43-.09a.57.57,0,0,0,.39.05s.12.16.17.15l.92-.26c.1-.07.1-.11,0-.14s.78-.41.8-.43a.46.46,0,0,1,.18-.06,1.56,1.56,0,0,0,.37,0c.06,0,.12-.1.12-.11a3.86,3.86,0,0,0,.68-.24c.08,0,.44-.26.39-.28l-.12,0h0l.19-.05a2,2,0,0,0,.34,0,.76.76,0,0,0,.23-.08l.09,0a15,15,0,0,0,1.53-.36L48.23,14l.08,0s0,0-.07,0h-.11a.19.19,0,0,1,.12,0c.19,0,1.54-.22,1.56-.24s0,0-.05,0-.06,0,0,0l.11-.06,0,0h-.21c-.07,0-2.66-.15-2.73-.13l-.61.1c-.05,0-.15,0-.15,0a5,5,0,0,0-.55,0s0,.05,0,.07l-.3,0s-1,0-1.05,0,0,.06,0,.06-.45.21-.47.24.19.14.2.15a.57.57,0,0,0,.27.06L45.49,14s0,0,0,0,.16,0,.19,0c-.25,0-1,.08-1.14.08h-.2l-.15,0s-.2,0-.37-.08h0a.38.38,0,0,0-.18,0c-.11,0-.13-.05-.1-.07s-.07,0-.09-.05a.34.34,0,0,0-.12,0,0,0,0,0,1,0,0l.15-.1.16-.09c.09,0,.06-.07,0-.1a.62.62,0,0,0-.21,0s0,.07,0,.07,0,0,0,0h0c-.06,0-1.44.33-1.47.35-.21.08-.35.17-.55.26s-.07.07,0,.09a.35.35,0,0,0,.16,0l.08,0s0,0,0,0l-.07,0h-.07a.66.66,0,0,0-.4.09,1.18,1.18,0,0,0-.24.19c-.11.09-.09.16,0,.2A.22.22,0,0,0,40.85,15Z"></path>
    <path class="cls-1" d="M30.05,20.13l.19-.1A.68.68,0,0,1,30.5,20a.54.54,0,0,0,.3-.09l.15-.08s.05,0,.05,0,0,0,0,0,0,.07.08.09,0,.12,0,.16,0,0,0,0a2.14,2.14,0,0,0,.67,0c.07,0,.32-.47.36-.49s.44,0,.51-.09.09-.13.07-.19-.13-.54-.13-.61a.2.2,0,0,1,.09-.15,2.16,2.16,0,0,0,.43-.49l.42-.42a.57.57,0,0,1,.18-.12,5.68,5.68,0,0,0,.55-.28.4.4,0,0,0,.12-.1c.06-.1.05-.15-.07-.16a1.56,1.56,0,0,0-.55.19c0,.06-.06.12-.08.18a.08.08,0,0,1,0,0s0-.07-.07-.08l-.09,0c-.07,0-.16,0-.24.07l-.16.13c-.12.12-.22.24-.36.36s-.21.25-.33.37l0,0,0,0a.13.13,0,0,1-.11,0,0,0,0,0,1,0-.06c.09-.11.18-.22.28-.32a.89.89,0,0,0,.26-.42.14.14,0,0,0,0-.06.11.11,0,0,0-.13,0,1.56,1.56,0,0,0-.16.2s-.07.06-.1.05a.4.4,0,0,0-.11,0c-.92.78-1.8,1.62-2.64,2.49h.13A.54.54,0,0,0,30.05,20.13Z"></path>
    <path class="cls-1" d="M57.71,27.72s-.05,0-.09,0,0,.39,0,.54,0,.36,0,.4a1.67,1.67,0,0,0,.34.11,2,2,0,0,1,0,.32c0,.09.17.17.18.17a.72.72,0,0,1,.25,0c.1,0,.27.43.25.52s-.51.26-.51.29,0,.26.09.36a.14.14,0,0,1,0,.18,1.47,1.47,0,0,0-.25.36,1.84,1.84,0,0,1,.57.2l0,0s-.85.64-.84.66l0,0s1.93-.42,2.14-.43a.79.79,0,0,0,.48-.38l-.09,0c-.06,0,.11-.3.16-.4a.3.3,0,0,0-.25-.47l-.25,0s-.64-1-.69-1.15-.49-.5-.47-.54.26-.49.31-.64-.19-.19-.23-.19a1.49,1.49,0,0,1-.4-.09c.06-.07.13-.14.19-.22a.13.13,0,0,0,0-.09s-.06-.07-.11-.07l-.4,0C58.05,27.21,57.79,27.58,57.71,27.72Z"></path>
    <path class="cls-1" d="M63.53,15.79v.13a2,2,0,0,0,.12.27,7.09,7.09,0,0,0,.69.47.18.18,0,0,0,.16,0l0,0c0-.12.32-.83.3-1s0,0,0-.05.38.16.46.24,0,.19,0,.23a1.66,1.66,0,0,0,.54.11.43.43,0,0,0,.28-.28,12.17,12.17,0,0,1-1.07-.62l-.07,0-.16,0c-.11,0-.6-.34-.68-.35l-.15,0c-.05,0-.16.12-.18.16h-.07A6.23,6.23,0,0,0,63,15a.46.46,0,0,0-.2.12c-.07.08,0,.14.09.2A3.89,3.89,0,0,0,63.53,15.79Z"></path>
    <path class="cls-1" d="M37.89,16.72c0,.08.3.18.42.14a.32.32,0,0,1,.09,0s0,0,0,0a.24.24,0,0,0-.06.08s0,0,.08.06,1.31.13,1.43.11a2.69,2.69,0,0,0,.36-.06c.09-.05.67-.51.57-.58a.07.07,0,0,1,0-.07,5.7,5.7,0,0,0-1.1,0c-.11,0-.23.05-.24,0s-.06,0-.11,0-.22-.23-.28-.23,0,0,0,0l.37-.07s.09-.05.08-.07a0,0,0,0,0,0,0c-.05,0-.18-.22-.24-.22s0-.17-.07-.18-.09-.1-.19-.12a1,1,0,0,0-.45.14c0,.09.26.37.22.42l-.09.15a2.62,2.62,0,0,1-.43.27A.86.86,0,0,0,37.89,16.72Z"></path>
    <path class="cls-1" d="M34.27,16.3l.35-.06h.07l.19,0a.25.25,0,0,0,.17,0l.16,0a.75.75,0,0,0,.24-.08l.49-.25.14-.08c.1-.07.12-.14.05-.18h-.07a.47.47,0,0,0-.15.06s-.06,0-.07,0-.11,0,0-.1,0-.05.06-.1a.23.23,0,0,0,.12-.08.72.72,0,0,1,.22-.2s0,0,0-.06-.07,0-.13,0l-.4.15a.23.23,0,0,0-.14.1.09.09,0,0,0,0,.07.24.24,0,0,1-.15.09l0,0a.2.2,0,0,0-.13.1s0,0,0,0a.15.15,0,0,1-.12.08l-.29,0s0,0,0,0a.22.22,0,0,0,.08-.09l-.93.67a1.21,1.21,0,0,0,.18-.05A1.24,1.24,0,0,1,34.27,16.3Z"></path>
    <path class="cls-1" d="M52.4,24a5.75,5.75,0,0,0,1.15.33.31.31,0,0,0,.19,0c.24-.09,1.4-.61,1.45-.66a4,4,0,0,0,.3-.57s0,0,0,0-.32-.47-.36-.46a.17.17,0,0,1-.18,0c-.07-.07-.15-.06-.24,0a4.47,4.47,0,0,1-1.07.25s-.17-.11-.19-.07a.15.15,0,0,0,0,.15c0,.08-.19.18-.22.19s-.18-.46-.21-.49-.71.3-.8.4a3.79,3.79,0,0,0,.54.11s0,0,0,.07-.07.12-.18.13-.18.21-.1.23a.64.64,0,0,1,.21.22S52.4,23.94,52.4,24Z"></path>
    <path class="cls-1" d="M35.63,17.11h0l0-.05-.09,0c-.06,0-.9.71-.91.7a.32.32,0,0,1,0-.17s0-.05-.09,0a.47.47,0,0,0-.34.19L34,18S34,18,34,18s0,.64,0,.68.07,0,.12,0l.71-.31a4.18,4.18,0,0,0,.58-.54.62.62,0,0,0,0-.13.09.09,0,0,0-.07-.11s0,0,0-.05a4.7,4.7,0,0,0,.65-.37s0-.06-.06-.06h-.25l-.12,0h0Z"></path>
    <polygon class="cls-1" points="39.96 32.91 39.96 32.92 39.97 32.92 39.96 32.91"></polygon>
    <path class="cls-1" d="M39.43,33.39c.09,0,.16.13.27.13a1.21,1.21,0,0,0,.26-.6h0l0,0a.5.5,0,0,1,0-.38.06.06,0,0,0,0,0s-.06-.39-.07-.43-.15-.15-.2-.12a1.36,1.36,0,0,1-.44.1s-.11-.59,0-.69a1.18,1.18,0,0,0,.25-.4,1.12,1.12,0,0,0-.52.22,13.15,13.15,0,0,1-1,1.24c-.06,0,0,.22-.07.28s-.16.29-.13.29,1.14.08,1.25.12a1.61,1.61,0,0,0-.15.26.1.1,0,0,0,.07,0,5.57,5.57,0,0,0,.53-.33A1.52,1.52,0,0,0,39.43,33.39Z"></path>
    <path class="cls-1" d="M66.36,14.76a2.07,2.07,0,0,0-.22,0c-.15,0-1.32,0-1.4-.07a1.48,1.48,0,0,0-.37.21,8.22,8.22,0,0,0,1.13.34A2,2,0,0,0,66.36,14.76Z"></path>
    <path class="cls-1" d="M38.11,15.63v-.08a1.93,1.93,0,0,0-.54-.05,1.59,1.59,0,0,0-.29.29l0,0s0,0,0,0,0-.11,0-.16,0,0-.05,0l-.07,0c-.1.07-.06-.22-.06-.24s-.09,0-.13,0l-.12.08c-.06,0-.36.56-.27.56h.33l-.06.05-.16,0c-.08,0-.27.26-.23.26l.25,0a.56.56,0,0,0,.31-.11s0,0,.05-.05a.46.46,0,0,1,.26-.1,1.57,1.57,0,0,1,.19-.15l.24-.14,0,0,.32-.21Z"></path>
    <path class="cls-1" d="M57.6,29.1a2,2,0,0,0-.5-.14,3.14,3.14,0,0,0-.49.43s-.48.11-.48.15,0,.44,0,.49-.21.56-.23.58.36.46.54.4a7,7,0,0,0,.91-.42,1.58,1.58,0,0,0,.12-.74c0-.07.25-.47.19-.59A.86.86,0,0,0,57.6,29.1Z"></path>
    <path class="cls-1" d="M38.85,14.61l.07,0c.09,0,.11.11-.08.22s-.06.06,0,.08a.23.23,0,0,0,.2,0,9.06,9.06,0,0,0,.83-.42c.09,0,.07-.16.12-.19s-.08-.15,0-.18,0-.08-.11-.08-1,.36-1,.37l-.11.05c-.08,0-.08.08,0,.09Z"></path>
    <path class="cls-1" d="M30,45.43a.89.89,0,0,1-.25-.14,1.21,1.21,0,0,0-.28-.18c-.05,0-1-.41-1-.4a2.89,2.89,0,0,0-.81.57s0,0,0,0a5.61,5.61,0,0,1,.8-.25c0,.08.31.19.4.22s1,.63,1.06.64,0,.33.05.33a4.75,4.75,0,0,0,.92-.08A4.06,4.06,0,0,0,30,45.43Z"></path>
    <path class="cls-1" d="M31.12,47a4.73,4.73,0,0,1,.52,0c.08,0,.25.18.27.18S33,46.89,33,46.85a6.42,6.42,0,0,0-.49-.46,1.22,1.22,0,0,0-.71-.11c-.07,0-.24-.1-.26-.12s-.12,0-.17.09.16.5.08.46S31.06,47,31.12,47Z"></path>
    <path class="cls-1" d="M39.47,14.94a2.79,2.79,0,0,0,.58,0,.71.71,0,0,1,.17-.11h0s.15-.1.12-.14,0-.18,0-.19a1.69,1.69,0,0,0-.62.24S39.49,14.91,39.47,14.94Z"></path>
    <path class="cls-1" d="M37.26,16.73l.06,0a2.1,2.1,0,0,0,.52-.36c0-.07,0-.13,0-.17s-.09,0-.16,0h-.11a3.58,3.58,0,0,1-.39.21C37.09,16.48,37.2,16.69,37.26,16.73Z"></path>
    <path class="cls-1" d="M37.56,16.21h0Z"></path>
    <path class="cls-1" d="M37.39,14.41c.1,0,.09,0,.14.06a.6.6,0,0,0,.44-.09l.09-.08h0c.07-.06,0-.09-.09-.08a2,2,0,0,1-.34,0l-.26,0-.12,0-.06,0s0,0,0,0S37.38,14.37,37.39,14.41Z"></path>
    <path class="cls-1" d="M63,36.74a1.83,1.83,0,0,1,.08.61c0,.31.16.38.44.2a.2.2,0,0,0,.11-.16c0-.1,0-.21,0-.31h0v-.21s0-.1,0-.15-.19-.37-.4-.22l-.17.11A.12.12,0,0,0,63,36.74Z"></path>
    <path class="cls-1" d="M38,21.09a.12.12,0,0,0,0-.15.32.32,0,0,0-.31,0,1.61,1.61,0,0,0-.44.38l0,0c-.07.12,0,.19.11.19a.74.74,0,0,0,.56-.3Z"></path>
    <path class="cls-1" d="M39.66,15.29l.2,0s.06-.05,0-.06a.58.58,0,0,0-.4-.12.61.61,0,0,0-.26.08s0,.06,0,.08a1.27,1.27,0,0,0,.39.08Z"></path>
    <path class="cls-1" d="M75,20.83a.3.3,0,0,0,.26-.28.13.13,0,0,0,0-.07.58.58,0,0,0-.38-.13.17.17,0,0,0-.15.11.57.57,0,0,1,0,.12c0,.05,0,.1.08.16A.24.24,0,0,0,75,20.83Z"></path>
    <path class="cls-1" d="M34,24.13l-.19,0a.26.26,0,0,0-.12.05,1.73,1.73,0,0,0-.21.17.12.12,0,0,0,0,.12s0,.07.06.07a.38.38,0,0,0,.15,0,1.23,1.23,0,0,0,.45-.3.12.12,0,0,0,0-.08,0,0,0,0,0,0,0Z"></path>
    <path class="cls-1" d="M36.38,31.78s0,.07,0,.11l0,.07a.63.63,0,0,0,.24.22l.32.09h0l.07-.06v-.05a.78.78,0,0,0-.65-.4Z"></path>
    <path class="cls-1" d="M73.74,39.69a.52.52,0,0,0,.21-.33s0,0,0,0l-.41.06a.77.77,0,0,0-.32.14.15.15,0,0,0,0,.19.29.29,0,0,0,.28.1C73.55,39.78,73.64,39.73,73.74,39.69Z"></path>
    <path class="cls-1" d="M63.4,36.28a.75.75,0,0,0,.06-.13,1.1,1.1,0,0,0,0-.28.45.45,0,0,0,0-.13.43.43,0,0,0,0-.05.1.1,0,0,0-.14-.09.61.61,0,0,0-.18.09.22.22,0,0,0-.1.22.71.71,0,0,0,.15.37A.14.14,0,0,0,63.4,36.28Z"></path>
    <path class="cls-1" d="M29.71,46.81a.05.05,0,0,0,0,.08.39.39,0,0,0,.47.23l.1,0a.08.08,0,0,0,0-.12.37.37,0,0,0-.37-.17Z"></path>
    <path class="cls-1" d="M70.07,39.66l.42-.07a0,0,0,0,0,0,0,.11.11,0,0,0,0-.08.58.58,0,0,0-.39-.13,1.78,1.78,0,0,1-.46,0,.13.13,0,0,0-.1,0s0,0,0,.08,0,.08,0,.08l.5.13Z"></path>
    <path class="cls-1" d="M33.41,46.93s0,.07-.06.11a.12.12,0,0,0,0,.11l.08,0a.48.48,0,0,0,.43-.09.06.06,0,0,0,0-.08.21.21,0,0,0-.1-.09.84.84,0,0,0-.18,0A.89.89,0,0,0,33.41,46.93Z"></path>
    <path class="cls-1" d="M37.52,15.13a1.46,1.46,0,0,0,.29-.22l0-.06a0,0,0,0,0,0,0l-.08,0-.28.17a.18.18,0,0,0-.07.08s0,0,0,0S37.5,15.14,37.52,15.13Z"></path>
    <path class="cls-1" d="M34.25,24.85s0,0,.06.06.07,0,.09,0l.18-.21.05-.07a.1.1,0,0,0-.14-.14A.45.45,0,0,0,34.25,24.85Z"></path>
    <path class="cls-1" d="M55.37,17.34a.22.22,0,0,0,0,.08s0,.09.06.12a.36.36,0,0,0,.25,0l0,0s0,0,0,0a1.09,1.09,0,0,0-.08-.15S55.43,17.28,55.37,17.34Z"></path>
    <path class="cls-1" d="M41.22,14.05l.25-.09s0,0,0,0,0,0-.1,0-.27.05-.25.1v0Z"></path>
    <path class="cls-1" d="M40.11,15.46a.4.4,0,0,0,.16-.08c0-.05,0-.1-.08-.09l-.08,0a.45.45,0,0,0-.18.14s0,0,0,0A.34.34,0,0,0,40.11,15.46Z"></path>
    <path class="cls-1" d="M38.5,15a.27.27,0,0,0,.17-.07c0-.05,0-.09-.11-.08a.25.25,0,0,0-.18.08S38.41,15,38.5,15Z"></path>
    <path class="cls-1" d="M36.39,14.89h.14a1,1,0,0,0,.28-.07.75.75,0,0,0,.2-.11.37.37,0,0,1,.14-.06l.2-.05s0,0,0,0,0,0,0,0a1.91,1.91,0,0,0-.42,0l-.24,0-.43.25,0,.06S36.35,14.88,36.39,14.89Z"></path>
    <path class="cls-1" d="M32.8,28.08c-.07,0-.08.08-.08.14a.06.06,0,0,0,0,0,.07.07,0,0,0,.09.08.46.46,0,0,0,.26-.18.22.22,0,0,0,0-.08A.08.08,0,0,0,33,28Z"></path>
    <path class="cls-1" d="M36.1,17a.12.12,0,0,0,0-.05h0a1,1,0,0,0-.29,0,.29.29,0,0,0-.2.11.82.82,0,0,0,.31,0Z"></path>
    <path class="cls-1" d="M35.84,16.2c.06,0,.08-.07.08-.11a0,0,0,0,0-.05,0,.82.82,0,0,0-.25.11,0,0,0,0,0,0,.07A.32.32,0,0,0,35.84,16.2Z"></path>
    <path class="cls-1" d="M62.83,15.45l0,0c0,.11.12.18.28.23h0s0,0,0,0-.17-.15-.24-.22Z"></path>
    <path class="cls-1" d="M31.55,29.9a.22.22,0,0,0-.09.1.08.08,0,0,0,0,.07l.15.05h.06l.07,0a.09.09,0,0,0,0-.11A.15.15,0,0,0,31.55,29.9Z"></path>
    <path class="cls-1" d="M35.43,50.26a.38.38,0,0,0,0,.1.11.11,0,0,0,.11.12.13.13,0,0,0,.14-.13.17.17,0,0,0-.12-.18A.09.09,0,0,0,35.43,50.26Z"></path>
    <path class="cls-1" d="M57.34,27.64s0,0,0,0h0Z"></path>
    <path class="cls-1" d="M57.61,27.39s0-.06,0-.07a0,0,0,0,0,0,0,.2.2,0,0,0-.18.15.91.91,0,0,0,0,.17l.08,0A.35.35,0,0,0,57.61,27.39Z"></path>
    <path class="cls-1" d="M37.26,25.78s0,0,0,0l.07,0a.41.41,0,0,0,.11-.07.13.13,0,0,0,0-.08.05.05,0,0,0-.09,0Z"></path>
    <path class="cls-1" d="M37.56,15.5h0Z"></path>
    <path class="cls-1" d="M38.48,25.12a.12.12,0,0,0,0,.1s0,0,.06,0,.06-.06.09-.09V25s0,0,0,0-.05,0-.06,0A.27.27,0,0,0,38.48,25.12Z"></path>
    <path class="cls-1" d="M37.47,16.23s-.07-.05-.18,0S37.29,16.29,37.47,16.23Z"></path>
    <polygon class="cls-1" points="37.3 16.2 37.3 16.19 37.29 16.19 37.28 16.2 37.3 16.2"></polygon>
    <path class="cls-1" d="M75.3,19.24l0,0,.14.09a.09.09,0,0,0,.07,0s0-.05,0-.08a.29.29,0,0,0-.16-.07Z"></path>
    <polygon class="cls-1" points="41.39 16.3 41.39 16.3 41.38 16.3 41.38 16.3 41.39 16.3"></polygon>
    <path class="cls-1" d="M31,45h0Z"></path>
    <path class="cls-1" d="M26.44,42h0Z"></path>
    <path class="cls-1" d="M37.13,20.92h0v0Z"></path>
    <path class="cls-1" d="M41.41,15l0,0s0,0,0,0Z"></path>
    <path class="cls-1" d="M32.38,19.73h0Z"></path>
    <path class="cls-1" d="M68.32,38.22h0Z"></path>
    <path class="cls-1" d="M63.9,35.51h0Z"></path>
    <path class="cls-1" d="M57.6,28.69h0Z"></path>
    <path class="cls-1" d="M36.86,20.27h0v0Z"></path>
    <path class="cls-1" d="M66.8,20h0Z"></path>
    <path class="cls-1" d="M65.63,39.22h0v0Z"></path>
    <path class="cls-1" d="M34.75,47.11a0,0,0,0,0,0,0s0,0,0,0Z"></path>
    <path class="cls-1" d="M54.13,13.5s0,0,0,0h0Z"></path>
    <path class="cls-1" d="M47.36,14.22h0Z"></path>
    <path class="cls-1" d="M37.9,15.47h0Z"></path>
    <path class="cls-1" d="M66.37,14.75h0Z"></path>
  </g>
</svg>
